<?xml version="1.0" standalone="no"?>
<!DOCTYPE svg PUBLIC "-//W3C//DTD SVG 20010904//EN"
 "http://www.w3.org/TR/2001/REC-SVG-20010904/DTD/svg10.dtd">
<svg version="1.0" xmlns="http://www.w3.org/2000/svg"
 width="225.000000pt" height="225.000000pt" viewBox="0 0 225.000000 225.000000"
 preserveAspectRatio="xMidYMid meet">
<metadata>
Created by potrace 1.16, written by Peter Selinger 2001-2019
</metadata>
<g transform="translate(0.000000,225.000000) scale(0.100000,-0.100000)"
fill="#000000" stroke="none">
<path d="M0 1125 l0 -1125 1125 0 1125 0 0 1125 0 1125 -1125 0 -1125 0 0
-1125z m1235 1025 c165 -19 327 -77 462 -167 76 -50 194 -162 255 -243 68 -89
143 -246 174 -365 23 -87 26 -120 26 -250 0 -130 -3 -163 -26 -250 -31 -119
-106 -276 -174 -365 -61 -81 -179 -193 -255 -243 -88 -59 -217 -115 -325 -144
-83 -22 -118 -25 -247 -25 -129 0 -164 3 -247 25 -182 48 -329 130 -465 260
-423 405 -425 1072 -5 1479 167 161 374 261 593 287 105 12 133 12 234 1z"/>
<path d="M623 1309 l-242 -420 106 -182 c58 -100 107 -183 109 -185 3 -4 22
29 283 481 111 192 201 351 201 353 0 4 -203 354 -214 371 -1 1 -110 -187
-243 -418z"/>
<path d="M847 758 c-30 -51 -79 -137 -110 -190 l-56 -98 487 0 487 0 75 132
c41 72 90 158 108 190 l33 58 -485 0 -485 0 -54 -92z"/>
</g>
</svg>
