<?xml version="1.0" standalone="no"?>
<!DOCTYPE svg PUBLIC "-//W3C//DTD SVG 20010904//EN"
 "http://www.w3.org/TR/2001/REC-SVG-20010904/DTD/svg10.dtd">
<svg version="1.0" xmlns="http://www.w3.org/2000/svg"
 width="275.000000pt" height="183.000000pt" viewBox="0 0 275.000000 183.000000"
 preserveAspectRatio="xMidYMid meet">

<g transform="translate(0.000000,183.000000) scale(0.100000,-0.100000)"
fill="#000000" stroke="none">
<path d="M0 915 l0 -915 1375 0 1375 0 0 915 0 915 -1375 0 -1375 0 0 -915z
m1405 650 l0 -110 -25 0 c-25 0 -25 1 -28 99 -3 116 0 129 30 124 22 -3 23 -6
23 -113z m-390 -86 c49 -85 53 -112 18 -117 -17 -3 -29 10 -61 65 -65 112 -64
110 -47 127 24 24 40 11 90 -75z m825 59 c0 -10 -21 -55 -46 -98 -36 -64 -51
-80 -69 -80 -12 0 -25 6 -28 14 -6 15 75 164 99 183 21 15 44 6 44 -19z m-300
-221 c46 -16 64 -26 61 -37 -2 -8 -4 -21 -4 -28 0 -8 -7 -10 -16 -7 -302 117
-630 -60 -693 -375 -11 -56 -16 -65 -36 -66 -20 -1 -22 4 -22 47 0 66 33 165
78 235 71 108 174 187 302 231 91 31 238 31 330 0z m-824 -114 c86 -48 102
-66 83 -89 -17 -20 -21 -19 -110 33 -83 48 -96 61 -85 88 8 23 22 19 112 -32z
m1439 19 c0 -19 -17 -33 -88 -74 -80 -47 -89 -50 -104 -35 -25 24 -10 42 74
90 86 50 118 55 118 19z m-240 -169 c108 -34 204 -122 257 -238 20 -43 23 -67
23 -160 0 -99 -3 -116 -27 -168 -54 -114 -137 -191 -255 -234 -64 -23 -64 -23
-566 -23 -501 0 -502 1 -558 24 -75 30 -112 58 -160 118 -71 90 -92 235 -49
337 24 55 26 57 53 37 16 -12 16 -16 2 -49 -22 -52 -19 -165 4 -220 26 -61 84
-123 145 -155 l51 -27 515 0 515 0 57 27 c79 37 142 98 181 177 29 59 32 74
32 156 0 77 -4 98 -27 147 -59 126 -176 207 -317 219 -42 3 -68 7 -57 7 13 2
17 8 13 21 -3 15 1 21 17 24 31 6 94 -3 151 -20z"/>
</g>
</svg>
