<?xml version="1.0" standalone="no"?>
<!DOCTYPE svg PUBLIC "-//W3C//DTD SVG 20010904//EN"
 "http://www.w3.org/TR/2001/REC-SVG-20010904/DTD/svg10.dtd">
<svg version="1.0" xmlns="http://www.w3.org/2000/svg"
 width="225.000000pt" height="225.000000pt" viewBox="0 0 225.000000 225.000000"
 preserveAspectRatio="xMidYMid meet">

<g transform="translate(0.000000,225.000000) scale(0.100000,-0.100000)"
fill="#000000" stroke="none">
<path d="M1065 2165 c-24 -23 -25 -30 -25 -140 0 -110 1 -117 25 -140 34 -35
78 -33 116 4 28 29 29 32 29 136 0 104 -1 107 -29 136 -38 37 -82 39 -116 4z
m84 -39 c8 -9 11 -47 9 -106 -3 -97 -15 -121 -52 -107 -13 5 -16 23 -16 111 0
103 3 113 36 115 6 1 17 -5 23 -13z"/>
<path d="M495 2005 c-36 -35 -31 -67 21 -159 63 -110 69 -116 120 -116 34 0
47 5 63 26 12 15 21 38 21 52 0 31 -95 199 -120 212 -33 18 -79 12 -105 -15z
m129 -105 c51 -88 55 -105 27 -119 -26 -14 -41 0 -90 86 -52 91 -53 113 -5
113 17 0 32 -17 68 -80z"/>
<path d="M1642 2013 c-32 -28 -112 -175 -112 -206 0 -57 75 -96 130 -67 26 14
120 182 120 214 0 62 -90 100 -138 59z m86 -55 c4 -19 -71 -156 -96 -175 -18
-15 -52 0 -52 24 0 9 21 52 46 95 41 70 50 79 73 76 15 -2 27 -10 29 -20z"/>
<path d="M1110 1667 c0 -27 19 -36 97 -47 261 -35 466 -182 578 -415 45 -93
75 -204 75 -274 0 -44 6 -49 35 -27 18 13 18 19 6 95 -56 370 -348 640 -728
675 -47 4 -63 2 -63 -7z"/>
<path d="M2001 1562 c-52 -30 -89 -58 -98 -76 -28 -54 10 -116 72 -116 41 0
185 78 210 113 21 30 19 70 -6 101 -32 41 -77 35 -178 -22z m147 -35 c-2 -16
-27 -35 -87 -69 -83 -46 -104 -50 -115 -22 -10 26 4 41 86 87 65 36 86 44 101
36 11 -6 17 -19 15 -32z"/>
<path d="M1126 1553 c-10 -26 -7 -32 24 -40 l31 -8 -77 -50 c-85 -56 -213
-183 -270 -269 -36 -54 -36 -57 -19 -76 17 -19 18 -17 58 43 112 167 319 328
454 353 48 9 32 21 -50 38 -120 25 -145 26 -151 9z"/>
<path d="M647 1446 c-71 -30 -71 -30 -58 -54 10 -19 11 -19 74 5 51 21 63 30
65 49 2 30 -8 30 -81 0z"/>
<path d="M1350 1449 c-133 -36 -267 -129 -371 -257 -76 -94 -94 -129 -78 -148
6 -8 15 -14 18 -14 4 0 29 31 55 70 71 104 191 211 289 260 88 44 179 61 213
42 18 -11 18 -11 -4 -12 -21 0 -22 -1 -7 -24 13 -19 27 -24 78 -29 34 -3 71
-8 82 -12 28 -11 -48 69 -102 106 -45 31 -101 37 -173 18z"/>
<path d="M682 1341 c-46 -18 -48 -22 -34 -48 9 -14 13 -14 56 2 33 13 45 22
41 32 -3 8 -5 19 -5 24 0 12 -8 11 -58 -10z"/>
<path d="M1490 1271 c0 -5 -3 -16 -6 -25 -5 -13 1 -16 27 -16 55 0 110 -20
141 -50 52 -52 31 -152 -56 -275 l-47 -65 30 0 c25 0 37 9 62 43 75 101 108
231 76 294 -24 46 -71 80 -127 92 -62 13 -100 14 -100 2z"/>
<path d="M1746 947 c-22 -45 -42 -85 -44 -89 -5 -11 16 -10 61 3 34 9 37 12
36 47 0 20 -4 56 -7 79 l-7 42 -39 -82z"/>
</g>
</svg>
