<?xml version="1.0" standalone="no"?>
<!DOCTYPE svg PUBLIC "-//W3C//DTD SVG 20010904//EN"
 "http://www.w3.org/TR/2001/REC-SVG-20010904/DTD/svg10.dtd">
<svg version="1.0" xmlns="http://www.w3.org/2000/svg"
 width="225.000000pt" height="225.000000pt" viewBox="0 0 225.000000 225.000000"
 preserveAspectRatio="xMidYMid meet">
<metadata>
Created by potrace 1.16, written by Peter Selinger 2001-2019
</metadata>
<g transform="translate(0.000000,225.000000) scale(0.100000,-0.100000)"
fill="#000000" stroke="none">
<path d="M536 1944 c-14 -13 -16 -60 -16 -364 l0 -349 -67 -3 -68 -3 0 -345 0
-345 68 -3 67 -3 0 -100 c0 -55 5 -109 10 -120 10 -18 28 -19 593 -19 440 0
586 3 595 12 8 8 12 49 12 120 l0 107 73 3 72 3 0 345 0 345 -72 3 -73 3 0
232 0 232 -132 132 -133 133 -457 0 c-402 0 -458 -2 -472 -16z m894 -116 c0
-109 59 -168 166 -168 l64 0 0 -215 0 -215 -530 0 -530 0 0 325 0 325 415 0
415 0 0 -52z m-672 -873 c7 -179 -18 -235 -105 -235 -33 0 -50 6 -68 25 -24
23 -35 75 -16 75 5 0 16 3 25 6 11 4 19 -2 26 -20 12 -32 35 -43 55 -26 12 10
15 38 15 130 0 64 3 120 7 124 4 4 19 6 33 4 24 -3 25 -6 28 -83z m269 51 c30
-35 29 -54 -4 -62 -21 -6 -30 -2 -45 20 -29 39 -105 33 -96 -9 2 -12 25 -25
72 -40 98 -32 125 -72 94 -140 -16 -35 -57 -55 -113 -55 -56 0 -97 20 -113 55
-19 42 -15 55 18 55 17 0 30 -4 30 -10 0 -19 40 -50 65 -50 30 0 67 34 59 55
-3 8 -37 24 -75 35 -75 23 -99 46 -99 96 0 24 8 39 32 59 29 24 38 27 92 23
49 -4 63 -9 83 -32z m301 14 c48 -29 72 -75 72 -138 0 -98 -48 -153 -138 -160
-47 -3 -63 0 -92 20 -93 62 -94 213 -1 275 44 29 113 31 159 3z m246 -85 l61
-99 3 102 3 102 29 0 30 0 0 -161 0 -160 -32 3 c-29 3 -39 13 -93 100 l-60 97
-3 -100 -3 -99 -29 0 -30 0 0 161 0 160 32 -3 c28 -3 38 -13 92 -103z m86
-490 l0 -85 -530 0 -530 0 0 85 0 85 530 0 530 0 0 -85z"/>
<path d="M770 1650 l0 -30 250 0 250 0 0 30 0 30 -250 0 -250 0 0 -30z"/>
<path d="M770 1500 l0 -30 355 0 355 0 0 30 0 30 -355 0 -355 0 0 -30z"/>
<path d="M770 1360 l0 -30 355 0 355 0 0 30 0 30 -355 0 -355 0 0 -30z"/>
<path d="M1208 975 c-37 -21 -51 -81 -35 -147 13 -50 92 -71 134 -36 36 30 35
147 -1 177 -23 19 -70 22 -98 6z"/>
</g>
</svg>
