<?xml version="1.0" standalone="no"?>
<!DOCTYPE svg PUBLIC "-//W3C//DTD SVG 20010904//EN"
 "http://www.w3.org/TR/2001/REC-SVG-20010904/DTD/svg10.dtd">
<svg version="1.0" xmlns="http://www.w3.org/2000/svg"
 width="500.000000pt" height="500.000000pt" viewBox="0 0 500.000000 500.000000"
 preserveAspectRatio="xMidYMid meet">

<g transform="translate(0.000000,500.000000) scale(0.100000,-0.100000)"
fill="#000000" stroke="none">
<path d="M2452 4889 c-24 -5 -58 -17 -75 -28 -46 -29 -884 -872 -872 -878 6
-2 156 -66 334 -141 l323 -138 57 29 c49 25 65 28 130 25 l74 -3 258 400 258
400 -147 148 c-179 180 -228 206 -340 186z"/>
<path d="M2793 4048 l-251 -391 18 -41 c11 -23 21 -53 24 -67 5 -23 40 -40
373 -182 l368 -157 43 21 c25 13 44 30 47 43 3 11 30 172 59 356 l54 335 -236
238 c-130 130 -239 237 -242 237 -3 -1 -118 -177 -257 -392z"/>
<path d="M1096 3591 l-280 -280 57 -83 c32 -46 166 -242 300 -437 l243 -354
79 -2 80 -2 245 380 c135 208 265 410 288 448 l44 68 -21 30 c-33 46 -52 111
-50 165 l3 50 -349 148 c-193 81 -352 148 -355 148 -3 0 -131 -126 -284 -279z"/>
<path d="M3651 3769 c-5 -33 -27 -166 -48 -295 -37 -231 -37 -234 -18 -248 59
-44 49 -46 295 59 l231 99 -223 223 c-122 123 -224 223 -224 223 -1 0 -7 -27
-13 -61z"/>
<path d="M2522 3341 c-32 -44 -115 -81 -181 -81 l-56 0 -288 -447 c-158 -245
-286 -447 -284 -449 2 -2 348 144 771 323 l767 327 -3 34 -3 34 -340 144
c-187 79 -345 144 -351 144 -5 0 -20 -13 -32 -29z"/>
<path d="M3980 3163 c-134 -57 -246 -106 -249 -108 -2 -3 -2 -8 2 -11 9 -9
1152 -492 1156 -488 2 1 -6 22 -18 46 -14 29 -123 145 -333 354 l-313 311
-245 -104z"/>
<path d="M422 2917 c-185 -186 -286 -295 -297 -319 -15 -38 -20 -88 -8 -88 3
0 254 -52 557 -115 l551 -116 27 33 c16 18 26 40 25 48 -2 9 -127 193 -277
410 -150 217 -278 403 -285 412 -10 15 -47 -18 -293 -265z"/>
<path d="M3620 2875 c-13 -13 -44 -32 -69 -42 -25 -9 -48 -18 -49 -19 -2 -1
-35 -191 -72 -421 -67 -407 -69 -418 -50 -434 27 -23 60 -81 60 -106 0 -12 5
-25 11 -29 7 -4 170 -40 363 -80 l351 -74 353 353 c193 194 352 357 352 363 0
10 -1188 514 -1212 514 -8 0 -25 -11 -38 -25z"/>
<path d="M2550 2553 c-421 -179 -766 -327 -768 -328 -8 -6 23 -65 36 -69 10
-2 286 -60 615 -127 l598 -123 29 36 c31 38 102 78 136 78 18 0 25 31 87 412
64 394 67 413 50 429 -17 17 -57 1 -783 -308z"/>
<path d="M389 2116 c193 -193 227 -223 245 -216 81 31 522 222 528 228 6 6
-951 212 -987 212 -5 0 91 -101 214 -224z"/>
<path d="M1741 1996 c-10 -12 91 -164 539 -813 304 -439 557 -804 564 -810 9
-10 23 -2 63 40 l50 52 93 569 c70 428 90 571 81 574 -27 9 -83 67 -103 106
-11 23 -21 42 -22 43 -3 4 -1220 253 -1236 253 -10 0 -23 -6 -29 -14z"/>
<path d="M981 1884 c-135 -57 -246 -106 -248 -107 -1 -2 55 -60 125 -130 l127
-126 138 214 c103 160 137 220 132 235 -3 11 -12 20 -18 19 -7 0 -122 -47
-256 -105z"/>
<path d="M1570 1869 c-14 -6 -61 -9 -104 -7 l-80 3 -142 -220 c-79 -121 -143
-225 -144 -230 0 -6 287 -297 638 -647 689 -687 658 -661 769 -660 69 0 125
28 186 90 l48 49 -561 814 c-308 448 -566 815 -573 816 -6 1 -23 -3 -37 -8z"/>
<path d="M3362 1635 c-24 -18 -47 -35 -52 -37 -9 -3 -164 -927 -157 -934 1 -2
200 194 442 436 242 242 437 441 435 443 -6 5 -600 127 -615 127 -5 -1 -29
-16 -53 -35z"/>
</g>
</svg>
