<?xml version="1.0" standalone="no"?>
<!DOCTYPE svg PUBLIC "-//W3C//DTD SVG 20010904//EN"
 "http://www.w3.org/TR/2001/REC-SVG-20010904/DTD/svg10.dtd">
<svg version="1.0" xmlns="http://www.w3.org/2000/svg"
 width="225.000000pt" height="225.000000pt" viewBox="0 0 225.000000 225.000000"
 preserveAspectRatio="xMidYMid meet">

<g transform="translate(0.000000,225.000000) scale(0.100000,-0.100000)"
fill="#000000" stroke="none">
<path d="M975 2244 c-99 -10 -194 -28 -244 -46 -66 -25 -128 -79 -139 -121 -4
-18 -6 -101 -4 -184 l4 -153 269 0 269 0 0 -40 0 -39 -432 -3 c-432 -3 -433
-3 -478 -26 -95 -49 -156 -135 -191 -268 -29 -109 -32 -352 -5 -469 35 -153
104 -256 201 -301 43 -21 65 -24 167 -24 l116 0 4 177 c3 166 5 182 29 233 36
77 71 115 137 147 l57 28 360 5 361 5 67 33 c72 36 106 72 134 143 15 38 17
85 18 359 l0 315 -28 47 c-46 78 -141 135 -274 163 -67 15 -321 27 -398 19z
m-95 -193 c71 -51 30 -171 -59 -171 -81 0 -130 111 -73 163 42 39 85 41 132 8z"/>
<path d="M1750 1522 c0 -132 -4 -171 -20 -224 -25 -82 -80 -147 -152 -179 -52
-23 -61 -24 -413 -29 -349 -5 -362 -6 -410 -28 -60 -28 -109 -73 -138 -127
-21 -38 -22 -54 -25 -360 -2 -208 0 -333 7 -356 15 -51 82 -116 154 -150 126
-58 337 -81 556 -60 203 20 312 65 350 145 20 39 21 58 19 197 l-3 154 -272 3
-273 2 0 40 0 40 418 0 c238 0 431 4 450 9 100 30 184 125 229 260 21 62 30
384 14 477 -26 144 -101 267 -195 317 -34 18 -62 22 -168 25 l-128 4 0 -160z
m-261 -1166 c30 -16 51 -53 51 -91 0 -40 -49 -87 -92 -88 -98 -3 -141 105 -66
168 33 28 66 32 107 11z"/>
</g>
</svg>
