<?xml version="1.0" standalone="no"?>
<!DOCTYPE svg PUBLIC "-//W3C//DTD SVG 20010904//EN"
 "http://www.w3.org/TR/2001/REC-SVG-20010904/DTD/svg10.dtd">
<svg version="1.0" xmlns="http://www.w3.org/2000/svg"
 width="225.000000pt" height="225.000000pt" viewBox="0 0 225.000000 225.000000"
 preserveAspectRatio="xMidYMid meet">
<metadata>
Created by potrace 1.16, written by Peter Selinger 2001-2019
</metadata>
<g transform="translate(0.000000,225.000000) scale(0.100000,-0.100000)"
fill="#000000" stroke="none">
<path d="M1234 2041 c-23 -10 -54 -36 -70 -57 l-29 -37 -3 -249 c-3 -243 -2
-249 20 -289 14 -25 41 -52 68 -67 44 -27 48 -27 263 -30 158 -3 217 -7 217
-15 -1 -7 -20 -81 -44 -166 l-44 -154 210 209 c116 115 216 223 224 241 11 25
14 87 14 260 0 200 -3 233 -19 268 -22 48 -44 69 -94 90 -30 12 -90 15 -354
15 -289 0 -322 -2 -359 -19z"/>
<path d="M675 1576 c-41 -18 -92 -77 -104 -123 -14 -49 -14 -516 -1 -565 21
-76 102 -138 180 -138 73 0 159 63 178 128 9 35 9 549 -1 584 -10 38 -65 98
-104 114 -41 17 -109 17 -148 0z"/>
<path d="M194 878 c23 -226 193 -427 407 -481 l54 -14 3 -97 3 -96 89 0 89 0
3 96 3 97 54 14 c136 34 289 158 349 283 36 75 62 167 62 222 l0 38 -90 0
c-49 0 -90 -1 -90 -3 0 -2 -5 -30 -11 -63 -14 -78 -62 -166 -117 -214 -223
-197 -567 -78 -621 214 -6 33 -11 61 -11 63 0 2 -41 3 -91 3 l-92 0 7 -62z"/>
</g>
</svg>
