<?xml version="1.0" standalone="no"?>
<!DOCTYPE svg PUBLIC "-//W3C//DTD SVG 20010904//EN"
 "http://www.w3.org/TR/2001/REC-SVG-20010904/DTD/svg10.dtd">
<svg version="1.0" xmlns="http://www.w3.org/2000/svg"
 width="225.000000pt" height="225.000000pt" viewBox="0 0 225.000000 225.000000"
 preserveAspectRatio="xMidYMid meet">
<metadata>
Created by potrace 1.16, written by Peter Selinger 2001-2019
</metadata>
<g transform="translate(0.000000,225.000000) scale(0.100000,-0.100000)"
fill="#000000" stroke="none">
<path d="M1312 2238 c-9 -9 -12 -106 -12 -376 0 -343 -1 -364 -17 -357 -56 23
-119 26 -535 23 l-453 -3 -65 -31 c-118 -56 -199 -163 -220 -290 -13 -78 -13
-437 0 -504 24 -126 108 -237 218 -288 50 -23 74 -27 187 -32 l130 -5 96 -175
c54 -96 102 -180 108 -187 14 -15 41 -6 41 14 0 8 -48 102 -107 208 l-107 193
-135 4 c-125 3 -141 5 -192 31 -63 30 -125 92 -161 159 -22 41 -23 53 -26 314
-3 254 -2 274 18 326 29 78 87 140 168 180 l67 33 455 0 455 0 56 -28 c67 -32
142 -109 172 -175 21 -45 22 -61 22 -317 l0 -270 -33 -67 c-36 -73 -87 -124
-161 -160 -42 -21 -64 -23 -266 -28 l-220 -5 -3 -23 -4 -23 234 3 233 3 60 31
c74 39 148 116 183 192 26 55 27 63 30 275 l3 217 354 0 c313 0 354 2 359 16
3 9 6 262 6 563 0 412 -3 550 -12 559 -17 17 -909 17 -926 0z m878 -568 l0
-520 -328 0 -327 0 -12 60 c-16 87 -49 147 -115 212 l-58 58 0 355 0 355 420
0 420 0 0 -520z"/>
<path d="M1492 1971 c-8 -5 -12 -17 -10 -27 3 -18 19 -19 306 -22 264 -2 303
0 308 13 4 8 1 22 -6 30 -11 13 -57 15 -299 15 -157 0 -292 -4 -299 -9z"/>
<path d="M1483 1684 c-3 -8 -1 -20 4 -25 5 -5 130 -8 309 -7 291 3 299 4 299
23 0 20 -8 20 -303 23 -268 2 -303 1 -309 -14z"/>
<path d="M1483 1404 c-3 -8 -1 -20 4 -25 5 -5 130 -8 309 -7 291 3 299 4 299
23 0 20 -8 20 -303 23 -268 2 -303 1 -309 -14z"/>
<path d="M406 998 c-24 -34 -20 -73 10 -97 15 -12 34 -21 44 -21 10 0 29 9 44
21 32 25 36 77 8 102 -28 25 -87 22 -106 -5z"/>
<path d="M717 1002 c-17 -19 -22 -68 -9 -88 10 -15 47 -34 67 -34 25 0 65 46
65 75 0 56 -86 89 -123 47z"/>
<path d="M1034 1012 c-15 -10 -34 -47 -34 -67 0 -25 46 -65 75 -65 56 0 89 86
47 123 -19 17 -68 22 -88 9z"/>
<path d="M2077 733 c-2 -4 -8 -33 -11 -64 -16 -127 -103 -245 -224 -302 -58
-27 -80 -32 -167 -35 l-100 -4 48 50 c48 48 58 80 29 90 -13 4 -146 -119 -164
-151 -8 -15 4 -32 68 -98 43 -43 83 -79 90 -79 6 0 17 7 24 15 10 12 3 24 -39
69 l-52 54 108 4 c96 3 115 7 176 35 124 59 219 175 247 303 15 69 11 114 -12
118 -9 2 -18 -1 -21 -5z"/>
</g>
</svg>
