<?xml version="1.0" standalone="no"?>
<!DOCTYPE svg PUBLIC "-//W3C//DTD SVG 20010904//EN"
 "http://www.w3.org/TR/2001/REC-SVG-20010904/DTD/svg10.dtd">
<svg version="1.0" xmlns="http://www.w3.org/2000/svg"
 width="413.000000pt" height="122.000000pt" viewBox="0 0 413.000000 122.000000"
 preserveAspectRatio="xMidYMid meet">

<g transform="translate(0.000000,122.000000) scale(0.100000,-0.100000)"
fill="#000000" stroke="none">
<path d="M530 959 c-90 -41 -133 -107 -133 -204 0 -97 43 -163 133 -204 60
-28 123 -26 187 3 168 79 168 323 -1 402 -63 29 -126 30 -186 3z m190 -119 c0
-27 -3 -30 -30 -30 l-30 0 0 -85 0 -85 -40 0 -40 0 0 85 0 85 -30 0 c-27 0
-30 3 -30 30 l0 30 100 0 100 0 0 -30z"/>
<path d="M2273 964 c-52 -19 -118 -89 -132 -140 -25 -89 -6 -161 58 -225 90
-91 226 -92 315 -3 107 107 77 291 -58 361 -42 22 -133 26 -183 7z m58 -165
l25 -71 25 68 c25 67 27 69 62 72 26 2 37 -1 37 -10 -1 -7 -20 -58 -43 -113
-42 -98 -43 -100 -79 -103 -22 -2 -37 2 -41 10 -33 79 -87 212 -87 215 0 1 17
3 38 3 l38 0 25 -71z"/>
<path d="M1700 300 c0 -40 4 -70 10 -70 6 0 10 24 10 53 l1 52 49 -55 49 -55
1 73 c0 41 -4 72 -10 72 -5 0 -10 -23 -10 -51 l0 -52 -41 52 c-22 28 -45 51
-50 51 -5 0 -9 -31 -9 -70z"/>
<path d="M1910 300 l0 -70 50 0 c28 0 50 5 50 10 0 6 -18 10 -40 10 -36 0 -40
3 -40 24 0 22 5 25 43 29 l42 4 -42 1 c-38 2 -43 5 -43 26 0 22 5 25 43 29 40
3 40 4 -10 5 l-53 2 0 -70z"/>
<path d="M2090 300 c0 -40 4 -70 10 -70 6 0 10 11 10 25 0 18 5 25 18 25 10 0
29 -11 42 -25 13 -14 28 -25 33 -25 6 0 0 11 -13 25 l-24 25 22 16 c48 33 20
74 -50 74 l-48 0 0 -70z m95 30 c0 -22 -5 -25 -37 -28 -36 -3 -38 -2 -38 28 0
30 2 31 38 28 32 -3 37 -6 37 -28z"/>
<path d="M2290 299 l0 -72 45 5 c59 7 75 22 75 69 0 50 -21 69 -76 69 l-44 0
0 -71z m94 39 c9 -12 16 -29 16 -37 0 -25 -32 -51 -62 -51 -27 0 -28 1 -28 55
0 54 0 55 29 55 20 0 35 -8 45 -22z"/>
</g>
</svg>
